<?xml version="1.0" encoding="utf-8"?>
<!-- Generator: Adobe Illustrator 26.0.1, SVG Export Plug-In . SVG Version: 6.00 Build 0)  -->
<svg version="1.1" id="Layer_1" xmlns="http://www.w3.org/2000/svg" xmlns:xlink="http://www.w3.org/1999/xlink" x="0px"
	y="0px" viewBox="0 0 55.09 55.09" style="enable-background:new 0 0 55.09 55.09;" xml:space="preserve">
	<g>
		<path d="M46.4,13.15c1.07,9.88-3.78,16.88-11.29,17.59c-2.73,0.26-3.07,1.61-3.55,3.57c-0.99,3.99-15.68,14.76-19.72,14.37
		c-2.55-0.24-3.78-1.8-3.13-4.42c1.71-6.87,0.8-14.57,6.21-20.26c1.53-1.6,0.39-2.64-0.53-3.75c-2.9-3.49-2.44-7.66-2.38-11.75
		c0.01-0.94-0.05-2.18,1.36-2.08c1.32,0.09,1.32,1.34,1.29,2.26c-0.38,12.07,10.25,13.41,17.5,17.53c3.76,2.14,7.43-1.06,9.69-4.63
		C43.28,19.33,44.41,16.88,46.4,13.15z M11.27,44.84c5.72-0.77,8.94-4.72,13.3-6.35c2.95-1.1,5.05-3.6,4.31-6.86
		c-0.8-3.5-3.46-6.04-6.95-6.89c-3.27-0.8-5.4,1.83-6.3,4.32C13.83,34.01,12.77,39.24,11.27,44.84z" />
	</g>
</svg>